<?xml version="1.0" standalone="no"?>
<!DOCTYPE svg PUBLIC "-//W3C//DTD SVG 20010904//EN"
 "http://www.w3.org/TR/2001/REC-SVG-20010904/DTD/svg10.dtd">
<svg version="1.0" xmlns="http://www.w3.org/2000/svg"
 width="512.000000pt" height="512.000000pt" viewBox="0 0 512.000000 512.000000"
 preserveAspectRatio="xMidYMid meet">
<metadata>
Created by potrace 1.14, written by Peter Selinger 2001-2017
</metadata>
<g transform="translate(0.000000,512.000000) scale(0.100000,-0.100000)"
fill="#000000" stroke="none">
<path d="M0 3665 c0 -1157 3 -1455 13 -1455 8 0 8 -3 -2 -9 -11 -7 -10 -10 5
-13 15 -2 20 -19 31 -88 18 -122 18 -120 -17 -120 l-30 0 0 -990 0 -990 1902
2 c1849 3 1903 4 1906 22 2 11 0 16 -6 12 -7 -4 -10 6 -10 26 1 17 -4 34 -10
36 -7 2 -12 19 -12 38 0 25 -4 34 -17 35 -15 0 -15 2 2 9 11 5 14 9 8 9 -7 1
-13 14 -13 29 0 15 -4 32 -9 38 -6 5 -6 25 -1 49 5 22 14 72 19 110 6 39 13
79 16 90 2 11 9 38 14 60 12 45 7 69 -21 104 -10 14 -15 27 -11 30 4 3 8 15 8
26 0 19 8 20 252 23 l253 2 -10 -26 c-7 -19 -7 -37 1 -61 7 -21 7 -38 2 -46
-5 -7 -9 -27 -7 -44 1 -18 -3 -33 -8 -33 -6 0 -7 -22 -3 -58 10 -92 13 -382 4
-382 -5 0 -9 -13 -9 -30 0 -20 -5 -30 -15 -30 -8 0 -15 -5 -15 -10 0 -6 3 -9
8 -9 19 3 33 -2 27 -11 -4 -7 143 -10 434 -10 l441 0 0 371 0 371 -23 -6 c-12
-3 -85 -17 -162 -32 l-140 -26 -280 138 c-154 77 -279 144 -278 149 1 6 15 11
30 13 220 20 575 66 791 103 l62 11 0 2014 0 2014 -2560 0 -2560 0 0 -1455z
m3283 1185 c12 -18 12 -30 1 -88 -19 -90 -24 -99 -17 -29 3 32 2 57 -3 57 -5
0 -39 -30 -74 -66 -36 -36 -112 -108 -170 -159 -58 -51 -114 -109 -125 -128
-10 -20 -23 -33 -28 -30 -6 4 -8 -5 -5 -21 4 -18 2 -24 -4 -18 -11 11 6 99 27
141 6 13 52 58 101 100 49 42 125 118 168 169 82 95 104 107 129 72z m-1675
-72 c17 -13 61 -48 99 -80 37 -31 118 -87 178 -125 l110 -68 57 -115 c47 -94
67 -150 107 -306 43 -167 81 -274 96 -274 3 0 -4 24 -15 53 -19 52 -90 301
-90 318 0 4 6 7 13 5 6 -1 9 -1 5 1 -15 8 -8 19 11 19 12 0 17 -5 13 -15 -3
-9 -1 -12 6 -7 7 4 12 13 12 20 0 8 7 19 15 26 9 8 15 8 15 2 0 -6 -6 -12 -12
-15 -7 -2 -10 -7 -6 -11 3 -4 15 -2 26 5 16 10 18 18 11 35 l-8 23 217 -3
c211 -3 292 -13 292 -38 0 -6 -10 -8 -24 -4 -21 5 -180 8 -358 7 -54 -1 -66
-4 -62 -15 3 -9 -3 -17 -15 -21 -12 -3 -18 -11 -15 -17 4 -6 10 -6 16 0 12 12
48 4 48 -10 0 -7 5 -7 13 0 8 7 18 7 27 2 8 -5 21 -5 32 1 15 8 18 6 19 -13 0
-13 3 -17 6 -10 2 6 9 10 14 6 5 -3 9 0 9 5 0 6 7 11 15 11 8 0 15 -6 15 -13
0 -8 11 -12 30 -11 17 1 30 -1 30 -5 0 -3 18 -7 40 -8 62 -3 70 -5 70 -19 0
-6 6 -14 14 -17 8 -3 22 -26 31 -51 17 -44 17 -50 0 -114 -9 -37 -19 -76 -22
-87 -4 -14 -2 -17 6 -10 12 12 46 142 81 308 13 59 25 106 27 103 3 -2 -8 -60
-22 -128 -15 -67 -29 -145 -30 -173 l-4 -50 9 45 c12 64 28 118 29 100 1 -8
-6 -47 -14 -85 -17 -82 -19 -145 -4 -145 5 0 7 -6 3 -12 -4 -7 17 10 45 37 29
28 49 42 45 33 -3 -10 -10 -18 -16 -18 -5 0 -6 -5 -2 -11 3 -6 0 -15 -7 -20
-8 -5 -9 -9 -3 -9 7 0 30 25 53 55 23 30 44 55 47 55 3 0 -5 -14 -18 -31 -50
-67 -88 -135 -88 -156 0 -7 -7 -16 -15 -19 -8 -4 -15 -15 -15 -25 0 -18 19
-24 56 -20 14 2 39 -50 87 -179 20 -52 43 -113 53 -135 58 -138 134 -375 134
-415 -1 -14 -19 -59 -41 -100 -35 -66 -42 -67 -24 -3 3 10 -4 0 -14 -22 -11
-22 -22 -48 -25 -57 -2 -10 -9 -18 -16 -18 -6 0 -8 5 -5 10 3 6 2 10 -2 10 -5
0 -13 8 -18 19 -20 37 -140 208 -216 307 -76 98 -81 102 -179 152 -55 29 -105
52 -111 52 -5 0 -51 -20 -102 -45 -50 -25 -98 -43 -106 -40 -9 3 -12 3 -8 -1
3 -4 -19 -34 -50 -68 -31 -34 -74 -88 -95 -120 -47 -72 -52 -79 -39 -43 14 37
14 47 -3 47 -9 0 -18 21 -25 63 -22 118 -32 192 -31 230 1 25 -3 36 -10 32
-13 -8 -15 -16 25 108 34 107 53 152 56 132 0 -5 4 1 8 15 4 14 13 24 20 22 7
-1 10 2 6 8 -6 10 3 24 40 61 19 19 19 20 -30 69 -27 27 -46 53 -42 56 4 4 0
19 -9 33 -12 19 -8 17 15 -8 17 -18 28 -38 24 -44 -3 -6 -1 -7 5 -3 7 4 20 -6
32 -26 22 -36 25 -34 10 8 -9 24 -9 25 5 14 13 -11 15 -6 15 36 0 57 -44 243
-61 258 -9 8 -10 8 -5 -1 4 -8 2 -13 -6 -13 -9 -1 -7 -5 5 -14 9 -7 17 -21 17
-30 0 -10 4 -25 9 -34 4 -9 11 -42 14 -72 3 -30 3 -46 0 -35 -11 42 -56 173
-84 243 -61 154 -71 167 -295 390 -207 205 -214 211 -215 180 l-1 -33 -13 30
c-15 32 -19 87 -8 98 11 12 29 8 61 -15z m1652 -15 c0 -9 -3 -13 -7 -10 -3 4
-13 1 -22 -5 -10 -8 -9 -4 3 10 23 26 26 27 26 5z m-417 -418 c-3 -9 -8 -14
-10 -11 -3 3 -2 9 2 15 9 16 15 13 8 -4z m4 -57 c-3 -8 -6 -5 -6 6 -1 11 2 17
5 13 3 -3 4 -12 1 -19z m-710 -50 c-3 -8 -6 -5 -6 6 -1 11 2 17 5 13 3 -3 4
-12 1 -19z m10 -40 c-3 -8 -6 -5 -6 6 -1 11 2 17 5 13 3 -3 4 -12 1 -19z m670
-30 c-3 -8 -6 -5 -6 6 -1 11 2 17 5 13 3 -3 4 -12 1 -19z m423 -62 c120 -93
260 -252 244 -277 -3 -5 0 -8 8 -7 7 2 12 -3 10 -9 -1 -7 2 -13 6 -13 12 0 32
-46 32 -73 -1 -21 -1 -22 -12 -2 -6 11 -14 22 -18 25 -4 3 -18 25 -30 50 -12
25 -26 47 -29 50 -4 3 -14 17 -23 31 -34 53 -119 137 -203 199 -47 34 -85 67
-85 72 0 5 -4 6 -10 3 -6 -3 -7 1 -4 9 8 20 27 10 114 -58z m-1299 -129 c98
-110 119 -138 65 -87 -26 25 -75 79 -109 120 -109 134 -95 124 44 -33z m796
51 c-3 -8 -6 -5 -6 6 -1 11 2 17 5 13 3 -3 4 -12 1 -19z m324 -1 c-10 -9 -11
-8 -5 6 3 10 9 15 12 12 3 -3 0 -11 -7 -18z m-1186 -27 c3 -5 -11 -26 -32 -46
-27 -25 -30 -31 -12 -20 25 16 27 16 32 -4 4 -16 12 -19 44 -16 37 4 43 0 82
-45 23 -27 39 -54 36 -59 -4 -6 -1 -9 7 -8 7 2 27 -25 47 -64 l33 -67 -30 -48
c-18 -28 -43 -94 -61 -158 -16 -60 -39 -137 -51 -170 -21 -61 -71 -238 -118
-417 l-25 -97 19 -43 c10 -23 35 -68 55 -99 l37 -56 -42 -23 c-50 -28 -173
-110 -238 -158 -35 -26 -53 -50 -73 -96 -14 -34 -50 -108 -79 -166 -30 -58
-57 -125 -61 -148 l-7 -42 -64 0 c-44 0 -64 4 -64 13 0 9 -2 9 -8 0 -4 -6 -21
-13 -37 -15 -46 -5 -44 -33 2 -49 21 -7 41 -12 45 -11 12 3 71 -33 75 -45 3
-8 -23 -12 -84 -13 -48 -1 -119 -3 -158 -4 -38 -1 -87 3 -108 8 -26 6 -41 6
-49 -2 -8 -8 -14 -7 -22 4 -10 13 -15 13 -41 -7 l-30 -22 27 28 c27 28 68 41
68 21 0 -7 3 -7 11 1 6 6 25 7 49 3 37 -7 71 2 58 15 -3 4 -31 6 -62 6 -71 0
-74 18 -3 21 28 1 61 3 72 4 11 1 35 2 53 3 l34 1 -6 113 c-3 61 -9 183 -12
271 l-6 158 -192 -3 c-105 -2 -244 -2 -308 0 l-117 3 -3 124 -3 124 100 0 c55
0 132 3 170 6 39 2 196 11 349 19 154 8 281 16 282 18 2 2 7 214 11 471 3 265
10 461 15 454 7 -10 11 -9 23 5 7 11 11 25 9 32 -3 7 4 15 15 18 12 3 21 11
21 19 0 10 -3 9 -10 -2 -8 -12 -10 -11 -10 7 0 16 5 20 20 16 14 -4 20 0 20
13 0 9 3 14 7 11 9 -10 44 24 36 36 -3 5 -1 7 4 4 6 -4 53 28 104 71 78 64
136 109 146 111 1 1 5 -3 8 -9z m1165 -5 c-11 -13 -10 -14 4 -9 9 3 16 11 16
18 0 6 4 5 9 -3 8 -12 12 -12 24 -2 13 10 16 8 22 -9 7 -21 7 -21 28 -3 17 14
19 14 9 1 -11 -14 -10 -17 7 -23 12 -3 21 -11 21 -16 0 -5 4 -9 10 -9 16 0 70
-58 70 -76 0 -13 3 -14 15 -4 10 9 15 9 16 1 1 -6 2 -16 3 -23 0 -7 11 -17 23
-23 18 -9 20 -14 10 -25 -10 -10 -8 -10 10 -1 19 10 22 9 17 -4 -4 -9 1 -17
11 -21 9 -4 14 -13 11 -21 -3 -8 -2 -11 3 -8 5 3 12 1 16 -5 4 -6 12 -7 18 -3
7 4 6 0 -2 -10 -9 -11 -10 -17 -2 -17 6 0 11 -10 11 -22 0 -12 3 -18 7 -15 9
10 34 -14 26 -26 -3 -5 2 -16 11 -23 9 -6 18 -21 19 -33 1 -12 5 -21 9 -21 4
0 7 -3 6 -7 0 -5 1 -15 4 -23 19 -51 38 -144 39 -191 0 -41 3 -49 10 -34 6 14
7 7 4 -25 -2 -25 -7 -154 -11 -287 l-6 -241 84 -6 c45 -3 216 -12 378 -21 162
-9 297 -18 299 -21 2 -2 -3 -4 -13 -4 -9 0 -15 -4 -12 -9 3 -5 15 -7 26 -4 12
3 22 -1 26 -11 3 -9 12 -16 20 -16 8 0 14 -9 14 -20 0 -14 6 -20 17 -18 13 2
18 -4 18 -25 1 -16 7 -32 14 -37 8 -4 11 -12 8 -17 -3 -5 -1 -15 5 -23 8 -12
9 -12 4 3 -3 9 -1 17 4 17 20 0 9 -33 -21 -61 -29 -27 -36 -29 -93 -25 -33 3
-149 8 -257 12 -175 6 -197 5 -202 -10 -4 -9 -13 -100 -22 -203 -9 -104 -18
-217 -21 -252 l-6 -64 -75 7 c-74 7 -103 20 -96 43 2 6 -5 21 -16 32 -10 10
-17 22 -13 25 3 4 -5 16 -17 27 -17 16 -21 28 -16 48 4 19 3 22 -5 11 -8 -13
-10 -13 -10 3 0 22 -2 30 -12 42 -33 40 -78 109 -102 158 -18 36 -34 56 -42
53 -8 -3 -11 0 -8 8 6 16 -33 51 -159 141 -98 69 -99 70 -93 105 20 119 27
190 21 230 -18 125 -244 753 -288 800 -32 33 -31 42 11 125 35 71 92 146 104
138 6 -3 8 -1 4 5 -6 9 38 72 51 72 3 0 0 -7 -7 -15z m-70 -39 c0 -2 -8 -10
-17 -17 -16 -13 -17 -12 -4 4 13 16 21 21 21 13z m360 -126 c0 -5 -5 -10 -11
-10 -5 0 -7 5 -4 10 3 6 8 10 11 10 2 0 4 -4 4 -10z m-1024 -1017 c-2 -9 -15
-21 -31 -26 -23 -8 -31 -6 -42 9 -7 10 -13 29 -12 43 l1 26 10 -27 c5 -16 14
-28 19 -28 7 0 7 6 0 17 -6 12 -6 24 1 37 10 19 12 19 34 -7 12 -14 21 -34 20
-44z m154 52 c0 -8 -2 -15 -4 -15 -2 0 -6 7 -10 15 -3 8 -1 15 4 15 6 0 10 -7
10 -15z m25 -41 c-11 -8 -15 -13 -9 -10 7 3 15 -1 18 -9 4 -12 2 -13 -13 -5
-20 10 -80 -4 -92 -22 -3 -6 -9 -2 -13 7 -3 10 3 29 15 46 20 29 22 29 45 14
31 -20 34 -19 34 7 0 21 1 21 17 5 16 -16 16 -18 -2 -33z m-105 10 c0 -8 -19
-13 -24 -6 -3 5 1 9 9 9 8 0 15 -2 15 -3z m165 -4 c-3 -5 -11 -10 -16 -10 -6
0 -7 5 -4 10 3 6 11 10 16 10 6 0 7 -4 4 -10z m-187 -129 c7 -1 11 -4 9 -8 -3
-5 11 -8 31 -8 21 0 42 -3 47 -6 15 -11 79 -14 93 -5 7 4 19 3 27 -4 8 -7 15
-7 19 -1 3 5 0 12 -6 14 -7 3 6 3 30 0 28 -3 42 -1 42 7 0 6 5 8 10 5 6 -3 10
-11 10 -16 0 -6 -5 -7 -12 -3 -8 5 -9 2 -4 -11 4 -11 0 -25 -10 -36 -10 -11
-12 -19 -6 -19 6 0 12 5 14 10 4 13 48 22 48 9 0 -8 -15 -13 -32 -10 -5 0 -8
-11 -8 -25 0 -21 -4 -24 -20 -19 -14 5 -20 2 -20 -9 0 -9 -7 -16 -16 -16 -8 0
-13 -3 -10 -8 2 -4 -13 -6 -35 -4 -32 3 -39 8 -39 26 0 29 -15 52 -24 37 -4
-6 -4 -17 1 -23 12 -21 14 -50 2 -43 -5 4 -19 -1 -30 -11 -10 -9 -19 -14 -19
-9 0 4 -7 2 -15 -5 -11 -9 -15 -9 -15 -1 0 7 -4 9 -10 6 -5 -3 -10 -1 -10 5 0
6 -4 8 -10 5 -5 -3 -10 1 -10 10 0 9 -5 13 -11 10 -20 -13 -92 33 -109 70 -3
6 -9 9 -14 7 -5 -2 -4 4 4 12 7 9 8 16 2 16 -5 0 -13 8 -16 17 -4 10 -4 14 0
11 3 -4 14 1 25 11 16 15 34 17 97 12z m-2107 -20 c-10 -7 -10 -10 -1 -13 9
-3 14 -39 16 -121 l4 -117 -26 0 -26 0 5 123 c4 67 6 125 7 130 0 4 8 7 18 7
13 0 14 -2 3 -9z m4509 -94 c0 -78 -17 -414 -25 -482 -2 -22 -4 -69 -5 -105 0
-76 -7 -91 -39 -83 -25 6 -26 -10 5 307 8 82 14 213 14 292 l0 144 25 0 c24 0
25 -2 25 -73z m-2950 -100 c0 -2 -10 -12 -22 -23 l-23 -19 19 23 c18 21 26 27
26 19z m1404 -12 c-5 -13 -2 -14 21 -5 25 9 26 8 19 -12 -4 -13 -7 -38 -8 -57
-1 -20 -7 -36 -15 -39 -10 -3 -12 1 -8 17 3 13 1 19 -6 14 -6 -4 -8 2 -4 17 3
13 0 28 -9 37 -10 10 -14 11 -14 2 0 -7 -3 -10 -6 -6 -10 10 7 47 21 47 9 0
12 -6 9 -15z m-1354 -10 c7 -9 8 -15 2 -15 -5 0 -12 7 -16 15 -3 8 -4 15 -2
15 2 0 9 -7 16 -15z m-32 -39 c3 -15 1 -16 -17 -5 -11 7 -17 17 -14 22 8 13
28 2 31 -17z m1433 1 c-10 -9 -11 -8 -5 6 3 10 9 15 12 12 3 -3 0 -11 -7 -18z
m43 -9 c5 -21 2 -30 -13 -38 -17 -9 -19 -7 -17 12 3 24 17 61 21 56 1 -2 5
-15 9 -30z m-110 -7 c3 -5 -1 -14 -9 -21 -10 -9 -15 -9 -15 -1 0 6 6 11 13 11
8 0 7 4 -3 10 -9 6 -10 10 -3 10 6 0 14 -4 17 -9z m-2044 -38 c0 -21 3 -124 7
-230 l6 -192 -24 -5 c-40 -9 -191 -23 -239 -22 l-45 1 -17 215 c-9 118 -17
225 -17 237 -1 26 17 28 212 31 l117 2 0 -37z m2639 -472 c27 -17 4 -37 -45
-40 -26 -1 -50 -2 -53 -3 -21 -2 -22 5 -1 27 24 26 71 33 99 16z m-2809 -11
c0 -5 -11 -10 -24 -10 -13 0 -31 -3 -40 -6 -9 -3 -16 -1 -16 4 0 6 15 13 33
15 17 2 35 5 40 5 4 1 7 -2 7 -8z m-90 -10 c0 -5 -7 -10 -16 -10 -8 0 -12 5
-9 10 3 6 10 10 16 10 5 0 9 -4 9 -10z m17 -36 c-3 -3 -12 -4 -19 -1 -8 3 -5
6 6 6 11 1 17 -2 13 -5z m108 -24 c3 -5 1 -10 -4 -10 -6 0 -11 5 -11 10 0 6 2
10 4 10 3 0 8 -4 11 -10z m288 -7 c-7 -2 -19 -2 -25 0 -7 3 -2 5 12 5 14 0 19
-2 13 -5z m40 -97 c-15 -18 -31 -31 -35 -29 -12 7 -48 -17 -48 -31 0 -21 -26
-27 -116 -25 -66 1 -88 5 -105 20 -12 11 -31 19 -43 19 -20 1 -20 1 -3 11 10
6 44 11 75 12 31 0 49 2 40 5 -10 2 -18 7 -18 11 0 11 52 21 76 15 10 -2 48 2
84 10 36 8 78 15 93 15 l29 1 -29 -34z m-164 -138 l64 -4 13 -44 c27 -89 23
-99 -66 -163 -83 -61 -98 -83 -81 -116 6 -11 11 -22 11 -25 0 -3 -87 -5 -192
-4 -148 1 -172 3 -103 8 90 5 90 6 39 14 -40 6 -54 14 -67 36 -16 26 -15 29 1
48 14 16 33 22 78 24 l59 3 29 58 28 57 79 0 c66 0 82 3 100 21 35 35 20 44
-64 40 -67 -2 -76 -1 -71 13 3 9 1 16 -5 16 -6 0 -8 7 -6 15 3 8 7 21 9 29 4
12 11 11 43 -4 21 -10 67 -20 102 -22z m2828 -100 c6 -5 19 -24 28 -43 l16
-35 74 0 c43 0 75 -4 75 -10 0 -5 8 -10 18 -10 29 0 55 -40 57 -87 2 -40 0
-43 -24 -45 -14 -1 15 -5 64 -8 59 -4 -4 -7 -181 -8 -238 -2 -273 0 -285 14
-17 21 -13 73 11 129 20 46 15 95 -10 95 -12 0 -50 37 -50 49 0 10 190 -27
207 -41z m-2160 -247 c-10 -12 -9 -14 6 -8 9 3 17 2 17 -3 0 -6 -16 -10 -35
-10 -19 0 -35 5 -35 11 0 5 5 7 10 4 6 -3 10 -2 10 4 0 5 -6 12 -12 15 -7 2 1
4 19 3 27 -1 30 -4 20 -16z m396 -18 c-34 -2 -93 -2 -130 0 -37 2 -9 3 62 3
72 0 102 -1 68 -3z m357 -390 c0 -13 -3 -13 -15 -3 -8 7 -12 16 -9 21 8 13 24
1 24 -18z m90 3 c0 -2 -7 -6 -15 -10 -8 -3 -15 -1 -15 4 0 6 7 10 15 10 8 0
15 -2 15 -4z m-176 -41 c13 -10 24 -11 36 -5 10 5 30 9 46 9 16 -1 48 2 72 6
41 7 42 7 42 -19 0 -20 -5 -26 -22 -26 -21 -1 -22 -2 -5 -14 23 -18 22 -39 -4
-62 -29 -26 -140 -33 -174 -10 -27 18 -33 54 -13 74 9 9 8 12 -4 12 -18 0 -28
18 -20 38 6 16 22 15 46 -3z m-1164 -65 c19 -27 20 -35 10 -59 -15 -38 -15
-84 0 -156 22 -104 8 -265 -23 -265 -7 0 -6 -4 3 -10 9 -6 10 -10 3 -10 -6 0
-15 -9 -18 -21 -4 -11 -9 -18 -12 -15 -3 3 -14 -4 -25 -16 -21 -24 -25 -25
-118 -33 -46 -4 -61 -3 -50 4 14 10 8 13 -16 10 -3 0 -14 9 -24 21 -10 12 -21
21 -24 21 -19 -3 -25 1 -28 16 -3 15 -4 15 -20 0 -16 -16 -17 -16 -15 9 1 19
-3 27 -16 30 -37 5 -47 13 -40 31 15 43 44 57 240 114 40 12 79 27 87 33 8 6
17 37 21 69 l7 58 -28 -7 c-18 -5 -25 -3 -20 4 7 11 -37 2 -180 -37 l-82 -23
-42 41 c-24 22 -46 38 -50 36 -4 -2 -5 6 -3 19 5 27 -28 56 -66 59 -37 2 -22
24 25 36 26 7 44 14 41 17 -2 3 -41 -4 -85 -15 -92 -24 -95 -24 -87 -11 3 6 1
10 -4 10 -6 0 -11 7 -11 15 0 8 -8 15 -17 15 -15 0 -16 2 -3 10 13 8 12 10 -5
12 -58 5 152 14 387 16 l266 3 22 -31z m-123 -186 c-3 -3 -12 -4 -19 -1 -8 3
-5 6 6 6 11 1 17 -2 13 -5z"/>
<path d="M2276 4215 c-10 -8 -16 -18 -15 -24 3 -6 12 -4 23 4 10 8 16 18 15
24 -3 6 -12 4 -23 -4z"/>
<path d="M2091 4145 c1 -19 18 -51 18 -35 0 8 -4 22 -9 30 -5 8 -9 11 -9 5z"/>
<path d="M748 2562 c-22 -3 -28 -9 -28 -26 0 -13 -9 -31 -20 -41 -34 -31 -10
-37 91 -26 52 6 152 13 224 17 104 4 131 9 141 22 19 25 24 52 11 52 -208 4
-398 4 -419 2z"/>
<path d="M1195 2550 c-3 -6 -4 -14 -1 -19 4 -5 0 -12 -6 -14 -10 -4 -10 -6 0
-6 7 -1 19 5 26 12 11 10 11 15 0 25 -8 7 -15 8 -19 2z"/>
<path d="M1198 1843 c7 -3 16 -2 19 1 4 3 -2 6 -13 5 -11 0 -14 -3 -6 -6z"/>
<path d="M2270 2810 c0 -5 5 -10 10 -10 6 0 10 5 10 10 0 6 -4 10 -10 10 -5 0
-10 -4 -10 -10z"/>
<path d="M2420 2831 c0 -6 4 -13 10 -16 6 -3 7 1 4 9 -7 18 -14 21 -14 7z"/>
<path d="M1218 1703 c7 -3 16 -2 19 1 4 3 -2 6 -13 5 -11 0 -14 -3 -6 -6z"/>
<path d="M940 709 c0 -5 5 -7 10 -4 6 3 10 8 10 11 0 2 -4 4 -10 4 -5 0 -10
-5 -10 -11z"/>
</g>
</svg>
